<svg id="iconLogo" xmlns="http://www.w3.org/2000/svg" width="540" height="607" viewBox="0 0 540 607">
  <g id="Grupo_3" data-name="Grupo 3">
    <path id="Caminho_22" data-name="Caminho 22" d="M537.762,510.808c-29.114-43.671.747-112.645,1.055-113.337,2.724-6.193.505-13.609-4.944-16.786s-12.173-.742-15.1,5.3c-.373.754-9.163,18.455-35.024,18.455-21.84,0-40.759-31.483-46.187-43.6L280.068,6.434c-3.823-8.579-16.3-8.579-20.127,0l-157.5,354.411c-.2.433-20.127,43.634-46.187,43.634-25.862,0-34.651-17.725-34.936-18.319-2.791-6.267-9.514-8.764-15.1-5.661-5.537,3.115-7.778,10.655-5.076,16.885.022.025.022.05.044.086.308.692,30.168,69.666,1.055,113.337A13.977,13.977,0,0,0,1.19,524.059a11.2,11.2,0,0,0,10.064,7c.418,0,41.946.26,72.51,23.189,5.669,4.239,10.657,8.5,15.512,12.645C123.533,587.52,146.451,607,222.806,607c6.284-.025,12.348-3.733,13.315-10.7.835-6.143-2.4-12.077-7.646-13.993-1.01-.371-100.349-37.565-82.617-111.223,17.183-71.3,88.286-244.017,113.841-305.1,30.673,60.642,117.883,236.291,134.45,305.1,17.732,73.658-81.606,110.852-82.617,111.223-5.251,1.916-8.482,7.85-7.646,13.993.967,6.971,7.009,10.741,13.315,10.7,76.355,0,99.272-19.493,123.53-40.111,4.856-4.141,9.843-8.406,15.512-12.645,30.389-22.806,72.114-23.189,72.532-23.189a11.22,11.22,0,0,0,10.042-7.009A14.012,14.012,0,0,0,537.762,510.808Z" transform="translate(0.001 0)" fill="red"/>
  </g>
</svg>
