<svg height="512" viewBox="0 0 512 512" width="512" xmlns="http://www.w3.org/2000/svg"><g id="outline"><path d="m504 456c-18.452 0-40-12.571-40-48v-344a24.027 24.027 0 0 0 -24-24h-48v40h-16v-40h-48v-16a8.009 8.009 0 0 1 8-8h32a8.009 8.009 0 0 1 8 8v16h16v-16a24.027 24.027 0 0 0 -24-24h-32a24.027 24.027 0 0 0 -24 24v16h-152v40h-16v-40h-48v-16a8.009 8.009 0 0 1 8-8h32a8.009 8.009 0 0 1 8 8v16h16v-16a24.027 24.027 0 0 0 -24-24h-32a24.027 24.027 0 0 0 -24 24v16h-56a24.027 24.027 0 0 0 -24 24v424a24.027 24.027 0 0 0 24 24h416a24.027 24.027 0 0 0 24-24v-16h40a8 8 0 0 0 0-16zm-128-375.6v23.6h16v-19.962a19.967 19.967 0 1 1 -16-3.638zm-232 0v23.6h16v-19.962a19.967 19.967 0 1 1 -16-3.638zm-40 375.6a48.054 48.054 0 0 1 -48-48v-248h392v248c0 17.385 5.03 33.227 14.163 44.605q1.426 1.776 2.961 3.395z"/><path d="m376 360h-24v-56a8 8 0 0 0 -8-8h-64v-40a8 8 0 0 0 -8-8h-8v-9.2a27.248 27.248 0 0 0 19.2-26c0-13.031-16.607-29.782-21.7-34.606a8 8 0 0 0 -11.006 0c-5.09 4.824-21.7 21.575-21.7 34.606a27.248 27.248 0 0 0 19.2 26v9.2h-8a8 8 0 0 0 -8 8v40h-63.994a8 8 0 0 0 -8 8v56h-24a8 8 0 0 0 -8 8v64a8 8 0 0 0 8 8h240a8 8 0 0 0 8-8v-64a8 8 0 0 0 -8-8zm-131.2-147.2c0-2.922 4.884-10.278 11.2-17.318 6.317 7.041 11.2 14.4 11.2 17.318a11.2 11.2 0 0 1 -22.4 0zm-68.8 99.2h160v5.635a42.894 42.894 0 0 0 -9.7 2.961 29.375 29.375 0 0 1 -23.278 0 45.344 45.344 0 0 0 -35.393 0 29.364 29.364 0 0 1 -23.274 0 45.339 45.339 0 0 0 -35.391 0 29.362 29.362 0 0 1 -23.273 0 42.93 42.93 0 0 0 -9.691-2.961zm192 67.54a46.975 46.975 0 0 0 -15.58 5.305c-4.643 2.321-8.311 4.155-16.42 4.155s-11.781-1.834-16.424-4.155c-5.479-2.74-11.69-5.845-23.579-5.845s-18.1 3.105-23.577 5.845c-4.648 2.321-8.32 4.155-16.426 4.155s-11.779-1.834-16.422-4.155c-5.479-2.739-11.689-5.845-23.578-5.845s-18.1 3.105-23.576 5.845c-4.643 2.321-8.31 4.155-16.418 4.155s-11.778-1.834-16.42-4.155a46.962 46.962 0 0 0 -15.58-5.305v-3.54h224z"/><path d="m144.686 244-14.343 14.343 11.314 11.314 14.343-14.343 14.343 14.343 11.314-11.314-14.343-14.343 14.343-14.343-11.314-11.314-14.343 14.343-14.343-14.343-11.314 11.314z"/><path d="m394.343 226.343-6.343 6.343-6.343-6.343-11.314 11.314 6.343 6.343-6.343 6.343 11.314 11.314 6.343-6.343 6.343 6.343 11.314-11.314-6.343-6.343 6.343-6.343z"/><path d="m106.343 322.343-6.343 6.343-6.343-6.343-11.314 11.314 6.343 6.343-6.343 6.343 11.314 11.314 6.343-6.343 6.343 6.343 11.314-11.314-6.343-6.343 6.343-6.343z"/><path d="m312 184h16v16h-16z"/><path d="m120 176h16v16h-16z"/><path d="m120 296h16v16h-16z"/><path d="m312 256h16v16h-16z"/></g></svg>